PathFileType	4	(X/Y/Z)	 s07c0403.trc
DataRate	CameraRate	NumFrames	NumMarkers	Units	OrigDataRate	OrigDataStartFrame	OrigNumFrames
200	200	4	48	mm	200	1251	2000
Frame#	Time	racr			lacr			c7			jug			rlel			rdr			llel			ldr			s2			lic			ric			lasi			rasi			rpsi			lpsi			rgt			lgt			rth1			rth2			rth3			rth4			rlfc			rmfc			rsh1			rsh2			rsh3			rsh4			rlmal			rcal			rtoe			rmt5			lth1			lth2			lth4			lth3			llfc			lmfc			lsh1			lsh2			lsh3			lsh4			llmal			lcal			ltoe			lmt5			SBIKE			LBIKE			RBIKE			
		X1	Y1	Z1	X2	Y2	Z2	X3	Y3	Z3	X4	Y4	Z4	X5	Y5	Z5	X6	Y6	Z6	X7	Y7	Z7	X8	Y8	Z8	X9	Y9	Z9	X10	Y10	Z10	X11	Y11	Z11	X12	Y12	Z12	X13	Y13	Z13	X14	Y14	Z14	X15	Y15	Z15	X16	Y16	Z16	X17	Y17	Z17	X18	Y18	Z18	X19	Y19	Z19	X20	Y20	Z20	X21	Y21	Z21	X22	Y22	Z22	X23	Y23	Z23	X24	Y24	Z24	X25	Y25	Z25	X26	Y26	Z26	X27	Y27	Z27	X28	Y28	Z28	X29	Y29	Z29	X30	Y30	Z30	X31	Y31	Z31	X32	Y32	Z32	X33	Y33	Z33	X34	Y34	Z34	X35	Y35	Z35	X36	Y36	Z36	X37	Y37	Z37	X38	Y38	Z38	X39	Y39	Z39	X40	Y40	Z40	X41	Y41	Z41	X42	Y42	Z42	X43	Y43	Z43	X44	Y44	Z44	X45	Y45	Z45	X46	Y46	Z46	X47	Y47	Z47	X48	Y48	Z48	
1251	6.2550	799.313550	1425.673038	-33.740453	860.776532	1374.245146	-369.547842	840.885017	1455.820053	-208.982166	788.974217	1311.794660	-199.538738	547.747520	1170.212397	57.483875	696.372843	942.281785	-41.660639	589.269725	1179.972812	-520.728190	690.683526	925.739749	-428.770110	250.490658	1284.289644	-281.583467	433.265625	1272.174511	-410.035252	406.387655	1315.500752	-122.153830	436.725528	1196.862801	-376.663666	418.711767	1255.638267	-134.600852	280.040392	1323.742374	-234.152527	304.308059	1313.573835	-343.850947	341.452144	1207.442977	-70.477116	323.987346	1142.766195	-422.836383	460.528128	1102.849404	-56.450341	545.932104	1054.888320	-56.574044	574.936200	978.204522	-52.200465	557.679883	1074.326026	-80.300293	644.622196	859.890276	-77.714534	639.067362	849.195496	-184.518852	535.774372	772.926948	-57.172440	474.515669	713.235526	-76.821274	390.811065	685.455707	-72.295289	483.655079	702.877844	-116.046402	266.017510	616.266402	-70.657755	187.640248	632.766620	-101.187064	384.402824	418.637301	-122.633914	306.660753	447.358444	-49.722103	313.994153	1031.312255	-427.625344	328.273273	945.059954	-423.738065	363.014321	941.202272	-413.887712	296.643323	861.846037	-416.788176	268.408034	694.421868	-388.578347	250.486048	681.522854	-295.496014	189.581034	572.379441	-410.497605	184.705529	492.052783	-392.970238	112.195689	422.350631	-396.802639	179.794057	490.768577	-350.185877	42.494396	307.067520	-391.810117	-32.828623	303.246774	-357.042398	212.489899	147.673920	-357.450537	131.036510	161.590043	-416.513077	-257.835162	967.328647	-231.983144	-75.619635	83.649198	-437.063751	-82.099053	80.022756	-39.533276	
1252	6.2600	799.185099	1423.701015	-30.624423	861.224499	1372.196239	-366.792452	842.006295	1453.137345	-205.648471	788.431116	1309.945378	-197.368407	545.283704	1169.266883	56.924897	696.391145	942.841171	-41.682230	589.699798	1180.380981	-519.803364	690.815225	925.787315	-428.350455	250.949993	1288.333110	-283.038406	434.195224	1275.844593	-410.418022	405.783352	1317.560304	-122.578800	437.027788	1200.140561	-377.002228	417.827414	1257.851916	-134.897349	280.642373	1327.431527	-235.530063	305.313322	1317.706298	-344.698102	339.584087	1209.762815	-71.753387	324.923107	1145.901095	-424.581512	457.486031	1104.812527	-57.383865	543.218983	1056.912625	-57.088906	572.002361	980.200096	-53.119095	554.971277	1076.605356	-80.208348	642.745005	862.191397	-77.508069	637.074642	851.069731	-184.439390	535.121911	773.201623	-56.986324	475.098269	711.879455	-76.384703	392.060170	682.626346	-71.860106	484.303599	701.708126	-115.846250	268.554747	610.060637	-70.343089	189.218326	623.841248	-100.641220	394.303607	417.819404	-122.493780	315.301004	442.704012	-49.383696	316.388835	1033.024028	-428.314924	332.266304	947.089829	-423.631898	366.967446	944.010948	-413.586315	302.148736	863.077383	-416.412842	275.568460	694.933693	-387.925671	256.707794	682.767671	-295.292977	193.335880	574.714684	-410.017834	185.123431	495.609175	-392.650557	111.171888	427.351351	-396.459471	179.292816	493.784761	-350.394851	37.644176	314.477148	-391.789682	-37.661137	312.296628	-357.200561	203.529093	150.444406	-356.550863	122.716367	166.894052	-416.054650	-257.847140	967.344578	-231.860520	-75.670113	83.664055	-437.021460	-82.094427	80.014390	-39.538111	
1253	6.2650	799.652054	1420.833346	-27.884210	861.455882	1369.889627	-364.027931	842.968848	1450.278591	-202.243260	787.774165	1307.902074	-195.369468	542.849319	1168.230000	56.211639	696.558975	943.398801	-41.792382	589.949267	1180.644126	-519.038540	691.010516	925.891436	-428.152443	251.513145	1292.240056	-284.665278	435.057066	1279.842315	-410.572216	404.947189	1319.578084	-122.865372	437.273883	1203.630619	-377.411841	416.861580	1259.957258	-135.230716	281.237864	1331.089114	-236.717838	306.213440	1321.962283	-345.433214	337.534360	1212.016250	-73.054991	325.876565	1149.148488	-426.242631	454.170745	1106.335496	-57.966856	542.736542	1057.281636	-57.946129	568.674110	981.725975	-53.486670	551.822549	1078.255202	-80.057970	639.838244	863.188749	-77.403833	631.874338	851.004913	-185.632393	532.740864	772.882154	-56.685706	474.311569	709.691920	-75.712371	391.610282	678.860339	-71.237834	484.299776	699.538841	-114.748624	270.033626	603.006150	-70.307671	191.591424	614.438772	-99.049817	403.590533	416.761110	-122.297063	323.238851	437.600421	-49.013419	319.203075	1034.656966	-429.009170	336.933586	949.249903	-423.682452	371.517947	946.890590	-413.298300	308.525048	864.517079	-416.428686	284.158372	695.494268	-387.413505	264.368323	684.127904	-295.188396	198.568036	577.227563	-409.780503	186.413463	499.336264	-392.314349	111.344878	432.801400	-396.324693	181.048944	497.341253	-349.914866	33.812803	322.568869	-392.301006	-41.632880	322.563374	-358.460348	194.865970	153.817334	-355.934878	114.940461	172.631883	-415.565467	-257.791743	967.306533	-231.912415	-75.607858	83.778480	-437.095406	-82.112140	80.031300	-39.513232	
1254	6.2700	800.522385	1417.156761	-25.328266	861.349923	1367.015882	-360.516700	843.759619	1447.234865	-199.190242	786.995318	1305.590520	-193.704500	540.424434	1167.115482	55.422706	696.425098	943.891197	-41.902940	590.140049	1180.780352	-518.410661	691.151682	925.980221	-428.061310	251.864680	1296.218427	-285.868345	435.714237	1283.840379	-410.749144	403.979676	1321.532517	-122.987950	437.470356	1207.333921	-377.812997	417.217916	1263.147276	-134.554198	281.703722	1334.672705	-237.471383	307.053619	1326.141316	-345.896789	335.453287	1214.148670	-74.258655	326.937014	1152.358202	-427.818828	450.488604	1107.258381	-58.405048	539.138918	1058.195379	-57.966842	564.743433	982.496187	-53.692357	548.310247	1079.228724	-79.742073	635.900644	863.060955	-77.313177	627.849446	850.024656	-185.373988	529.033254	771.527763	-56.440330	472.046662	706.568907	-75.260038	390.007500	673.951823	-71.312198	482.833450	696.208534	-113.944798	270.615895	594.985494	-70.342832	189.905107	602.181237	-99.812594	412.170435	415.690497	-122.228368	330.839725	431.632147	-48.904610	322.432171	1036.304302	-429.722752	342.013204	951.096977	-423.356896	376.622714	949.878300	-412.944441	315.674423	866.013423	-416.485544	294.022716	695.995998	-387.060594	273.447146	685.479935	-295.159214	205.056064	579.848131	-409.680260	188.508432	503.231518	-391.972494	112.598037	438.713159	-396.524190	182.374025	501.846672	-349.113454	31.026314	331.310107	-393.272225	-44.644636	332.838407	-359.067825	186.638804	157.728293	-355.869656	107.927882	178.688234	-414.846815	-257.782146	967.336530	-231.851244	-75.599279	83.837178	-437.092952	-82.115212	80.032921	-39.511261	
